<?xml version="1.0" encoding="UTF-8"?>
<svg id="Layer_1" data-name="Layer 1" xmlns="http://www.w3.org/2000/svg" viewBox="0 0 818.52 147.6">
  <defs>
    <style>
      .cls-1 {
        fill: none;
        stroke: #fff;
        stroke-miterlimit: 10;
        stroke-width: 10px;
      }
    </style>
  </defs>
  <polyline class="cls-1" points="5 111.88 5 49.19 79.13 49.19"/>
  <line class="cls-1" x1=".63" y1="7.29" x2="79.35" y2="7.29"/>
  <polyline class="cls-1" points="114.29 3.26 114.29 108.24 184.71 108.24"/>
  <line class="cls-1" x1="218.21" y1="7.64" x2="292.87" y2="7.64"/>
  <line class="cls-1" x1="217.85" y1="108.35" x2="292.51" y2="108.35"/>
  <line class="cls-1" x1="217.95" y1="55.84" x2="292.6" y2="55.84"/>
  <line class="cls-1" x1="332.01" y1="3.26" x2="425.6" y2="111.88"/>
  <line class="cls-1" x1="425.6" y1="3.26" x2="332.01" y2="111.88"/>
  <line class="cls-1" x1="468.09" y1="3.26" x2="468.09" y2="111.88"/>
  <path class="cls-1" d="m511.9,108.24h57.21c14.84,0,27-11.22,28.24-24.78,1.38-15.09-11.1-29.47-27.7-29.9,2.11-.13,10.63-.9,16.67-7.77,7.14-8.12,7.95-21.53.82-30.12-6.22-7.5-15.67-7.96-17.48-8.02h-57.77"/>
  <line class="cls-1" x1="511.9" y1="53.55" x2="569.64" y2="53.55"/>
  <line class="cls-1" x1="634.6" y1="7.24" x2="709.25" y2="7.24"/>
  <line class="cls-1" x1="634.24" y1="107.95" x2="708.89" y2="107.95"/>
  <line class="cls-1" x1="634.33" y1="55.44" x2="708.98" y2="55.44"/>
  <polyline class="cls-1" points="748.1 3.65 748.1 108.62 818.52 108.62"/>
</svg>