<?xml version="1.0" encoding="UTF-8"?>
<svg id="Layer_1" data-name="Layer 1" xmlns="http://www.w3.org/2000/svg" viewBox="0 0 459 497.71">
  <defs>
    <style>
      .cls-1 {
        fill: none;
        stroke: #fff;
        stroke-miterlimit: 10;
        stroke-width: 24px;
      }

      .cls-2 {
        fill: #fff;
        stroke-width: 0px;
      }
    </style>
  </defs>
  <path class="cls-2" d="m306.04,358v115.71H67.96v-115.71h238.07m6.45-24H61.51c-9.69,0-17.55,7.86-17.55,17.55v128.61c0,9.69,7.86,17.55,17.55,17.55h250.98c9.69,0,17.55-7.86,17.55-17.55v-128.61c0-9.69-7.86-17.55-17.55-17.55h0Z"/>
  <g>
    <rect class="cls-2" x=".5" y="387.77" width="33.68" height="56.17"/>
    <path class="cls-2" d="m33.68,388.27v55.17H1v-55.17h32.68m1-1H0v57.17h34.68v-57.17h0Z"/>
  </g>
  <g>
    <rect class="cls-2" x="339.82" y="387.77" width="33.68" height="56.17"/>
    <path class="cls-2" d="m373,388.27v55.17h-32.68v-55.17h32.68m1-1h-34.68v57.17h34.68v-57.17h0Z"/>
  </g>
  <g>
    <rect class="cls-2" x="108.86" y="374.78" width="33.68" height="82.15"/>
    <path class="cls-2" d="m142.04,375.28v81.15h-32.68v-81.15h32.68m1-1h-34.68v83.15h34.68v-83.15h0Z"/>
  </g>
  <g>
    <rect class="cls-2" x="234.56" y="374.78" width="33.68" height="82.15"/>
    <path class="cls-2" d="m267.74,375.28v81.15h-32.68v-81.15h32.68m1-1h-34.68v83.15h34.68v-83.15h0Z"/>
  </g>
  <path class="cls-1" d="m229.83,296.5c13.82-17.75,27.64-35.51,41.46-53.26h133.63c3.11-.28,21.62-2.24,33.43-16.89,7.63-9.46,8.53-19.33,8.64-23.38V51.74c-.08-4.37-.95-13.06-7.2-21.55-12.74-17.29-36.29-18.13-38.88-18.19h-248.3c-4.2.44-18.11,2.36-29.65,12.99-9.23,8.5-12.04,18.05-12.96,22.08v156.2c1.2,4.91,4.31,14.29,12.96,23.07,13.5,13.7,31,16.3,36,16.89h37.44c11.14,17.75,22.28,35.51,33.42,53.26Z"/>
</svg>